<?xml version="1.0" encoding="UTF-8"?>
<svg version="1.1" xmlns="http://www.w3.org/2000/svg" width="512" height="512">
<path d="M0 0 C2.30582442 0.00315136 4.61034924 -0.02036856 6.91601562 -0.0456543 C20.48818507 -0.10366004 33.56402534 1.83969129 46.63476562 5.56567383 C47.37098145 5.77329346 48.10719727 5.98091309 48.86572266 6.19482422 C56.76094247 8.51978137 64.15171197 11.79045578 71.57226562 15.31567383 C72.63058594 15.79907227 73.68890625 16.2824707 74.77929688 16.78051758 C82.62957017 20.49473601 89.59139916 25.20419852 96.57226562 30.31567383 C97.35214844 30.8802832 98.13203125 31.44489258 98.93554688 32.02661133 C132.54067225 57.21509652 153.95459487 95.18712434 160.15112305 136.5559082 C160.93203573 143.52753444 160.91905562 150.49504979 160.88476562 157.50317383 C160.8820314 158.66245392 160.8820314 158.66245392 160.87924194 159.84515381 C160.83390495 171.25914824 160.39266457 182.20330197 157.57226562 193.31567383 C157.3953418 194.01708496 157.21841797 194.71849609 157.03613281 195.44116211 C151.9128883 215.29262856 143.66500943 234.67036765 131.57226562 251.31567383 C132.30574219 252.03368164 133.03921875 252.75168945 133.79492188 253.49145508 C152.75925946 272.77586587 161.10066431 294.94675052 160.99633789 321.69604492 C160.80754029 330.47990101 159.68192985 338.04356048 156.57226562 346.31567383 C156.01152344 347.88961914 156.01152344 347.88961914 155.43945312 349.49536133 C150.58832682 362.12114038 142.94774869 371.80682685 133.57226562 381.31567383 C132.84136719 382.05946289 132.11046875 382.80325195 131.35742188 383.56958008 C123.56761319 390.98222857 114.01383221 396.68535553 103.57226562 399.31567383 C103.4975 399.85192383 103.42273438 400.38817383 103.34570312 400.94067383 C97.95947901 433.04679404 75.17327473 464.94043723 49.20507812 483.81567383 C15.35572172 507.52827506 -25.47800948 518.00593422 -66.55175781 511.13720703 C-75.75646212 509.30941575 -84.67150389 506.68421244 -93.42773438 503.31567383 C-94.58402344 502.87481445 -95.7403125 502.43395508 -96.93164062 501.97973633 C-119.63838021 492.79555786 -141.40738754 476.79943122 -156.42773438 457.31567383 C-156.42773438 456.65567383 -156.42773438 455.99567383 -156.42773438 455.31567383 C-157.00515381 455.59241943 -157.58257324 455.86916504 -158.17749023 456.15429688 C-178.86938587 466.0012374 -198.0122986 472.70563248 -221.1809082 472.63134766 C-223.22792196 472.6281928 -225.27347634 472.65173237 -227.3203125 472.67700195 C-260.8374829 472.83806488 -291.5174065 457.46959818 -315.42773438 434.69067383 C-340.04945161 409.40561398 -351.87657184 376.28017409 -351.79589844 341.28808594 C-351.25958221 314.35138373 -342.29710357 287.82464399 -325.21289062 266.90161133 C-323.32429983 264.16584085 -322.46971463 262.63736127 -322.42773438 259.31567383 C-323.77775753 256.79724633 -323.77775753 256.79724633 -325.86523438 254.37817383 C-334.16472149 243.55842361 -339.84229077 232.07278859 -344.42773438 219.31567383 C-344.99814453 217.73012695 -344.99814453 217.73012695 -345.58007812 216.11254883 C-353.91483202 191.07683523 -354.50699102 161.72569964 -347.42773438 136.31567383 C-347.10417969 135.10266602 -346.780625 133.8896582 -346.44726562 132.63989258 C-345.53928039 129.48603367 -344.52986608 126.4065229 -343.42773438 123.31567383 C-343.04746094 122.23286133 -342.6671875 121.15004883 -342.27539062 120.03442383 C-339.97122316 113.96850052 -338.20764801 109.55242546 -332.42773438 106.31567383 C-328.45735658 105.75842782 -326.24508054 105.93424562 -322.61523438 107.62817383 C-320.42773438 109.31567383 -320.42773438 109.31567383 -318.42773438 112.31567383 C-317.71075479 119.28502377 -319.6694627 124.40500825 -322.24023438 130.81567383 C-330.66760663 153.1884285 -333.38134017 179.05796961 -326.42773438 202.31567383 C-326.234375 203.00064941 -326.04101562 203.685625 -325.84179688 204.39135742 C-320.87442707 221.79631596 -312.82747616 236.34949803 -301.42773438 250.31567383 C-295.42773438 257.97700106 -295.42773438 257.97700106 -295.42773438 262.31567383 C-297.03582065 267.742965 -299.47222216 270.54802757 -303.53320312 274.37817383 C-307.03829064 277.96275817 -309.69624077 282.12991279 -312.42773438 286.31567383 C-313.20117188 287.47196289 -313.20117188 287.47196289 -313.99023438 288.65161133 C-328.83583351 311.9251808 -333.01701085 341.44758246 -327.26171875 368.20605469 C-322.70687599 387.53154706 -313.09542321 404.9837518 -299.42773438 419.31567383 C-298.18443359 420.6227832 -298.18443359 420.6227832 -296.91601562 421.95629883 C-285.40368738 433.16891868 -270.67731456 441.43141076 -255.42773438 446.31567383 C-254.78529785 446.52305176 -254.14286133 446.73042969 -253.48095703 446.9440918 C-227.74444956 454.88280966 -198.26132622 451.69006 -174.47070312 439.29614258 C-169.32931289 436.50742006 -164.29571908 433.56099696 -159.42773438 430.31567383 C-157.34179688 429.97973633 -157.34179688 429.97973633 -155.05273438 429.94067383 C-154.3025 429.91231445 -153.55226562 429.88395508 -152.77929688 429.85473633 C-147.51405412 430.88679388 -144.65398498 435.09532052 -141.80273438 439.31567383 C-121.93858484 467.16987234 -92.06506037 484.01787623 -58.55517578 489.90991211 C-52.63040383 490.67860618 -46.70653099 490.65417323 -40.74023438 490.62817383 C-40.07787781 490.62635101 -39.41552124 490.6245282 -38.73309326 490.62265015 C-28.6021378 490.57572351 -19.23045682 490.02590255 -9.42773438 487.31567383 C-8.79335449 487.14938477 -8.15897461 486.9830957 -7.50537109 486.81176758 C25.46927312 478.06388849 52.45269029 456.98443489 69.74023438 427.69067383 C75.77368546 416.57574474 79.76568379 405.2493496 83.00024414 393.03295898 C84.9663064 385.99696853 84.9663064 385.99696853 87.74023438 382.87817383 C91.47793174 380.81599597 95.31072076 379.17681862 99.25976562 377.56567383 C106.66743643 374.40604966 112.66838168 370.87829281 118.57226562 365.31567383 C119.18972656 364.79875977 119.8071875 364.2818457 120.44335938 363.74926758 C130.61803694 354.7076276 137.51045303 339.20547445 138.82226562 325.75170898 C139.95703244 306.15925075 135.65016558 288.86130502 122.82226562 273.62817383 C119.50485354 270.21861141 115.86894075 267.30014217 112.08789062 264.42114258 C108.02460075 261.02034562 105.84132493 258.92666639 104.94726562 253.57348633 C105.24324365 248.12595969 108.400268 244.42043821 111.57226562 240.19067383 C112.77515159 238.50709004 113.97436257 236.82087461 115.16992188 235.13208008 C115.75531738 234.3111084 116.34071289 233.49013672 116.94384766 232.64428711 C136.47766617 204.7112195 143.24189759 167.322064 137.44555664 133.9140625 C136.63694902 130.00176446 135.66157778 126.15852505 134.57226562 122.31567383 C134.26675781 121.19128906 134.26675781 121.19128906 133.95507812 120.04418945 C128.66027677 101.00578334 119.0561884 84.51843413 106.57226562 69.31567383 C105.39664063 67.88094727 105.39664063 67.88094727 104.19726562 66.41723633 C87.32555929 46.83400576 63.31211748 33.12977191 38.57226562 26.31567383 C37.8379834 26.10539551 37.10370117 25.89511719 36.34716797 25.6784668 C14.30790491 19.58886075 -11.49816017 20.05962793 -33.42773438 26.31567383 C-34.0893457 26.49759277 -34.75095703 26.67951172 -35.43261719 26.86694336 C-66.58701925 35.63940836 -92.85485374 55.84880064 -111.22070312 82.23364258 C-115.27475195 87.89496032 -115.27475195 87.89496032 -118.40820312 89.03833008 C-121.69159984 89.54391506 -124.28782726 89.87047525 -127.33789062 88.38598633 C-129.46172613 86.78972779 -131.43312016 85.07120757 -133.42773438 83.31567383 C-159.44621876 62.43241663 -189.75067672 51.40837114 -223.47851562 54.78051758 C-237.51464482 56.41214302 -250.44530783 60.01812788 -263.25073242 65.98120117 C-271.64759221 69.86962642 -271.64759221 69.86962642 -276.05273438 69.00317383 C-279.81105233 67.12401485 -281.48219312 66.0446279 -283.42773438 62.31567383 C-284.23470614 58.16313163 -284.13587319 55.45046629 -281.86523438 51.81176758 C-278.90113972 48.77642065 -275.74098705 47.09942458 -271.92773438 45.37817383 C-270.81265503 44.86830933 -270.81265503 44.86830933 -269.67504883 44.34814453 C-235.13573644 29.07658595 -195.77430086 27.9926298 -160.42773438 41.31567383 C-147.26929031 46.65636431 -135.46922962 53.3518793 -124.42773438 62.31567383 C-123.55632812 61.37208008 -122.68492187 60.42848633 -121.78710938 59.45629883 C-118.63946621 56.05663048 -115.47209477 52.67600126 -112.29541016 49.3034668 C-111.14602818 48.08016379 -110.00032905 46.85337284 -108.86083984 45.62084961 C-100.65995805 36.76790993 -91.51624421 29.90814052 -81.42773438 23.31567383 C-80.409375 22.64665039 -79.39101563 21.97762695 -78.34179688 21.28833008 C-66.19055303 13.78315006 -52.77541533 8.71861143 -39.05273438 4.94067383 C-38.18664551 4.7021167 -37.32055664 4.46355957 -36.42822266 4.21777344 C-24.30097512 1.0503113 -12.48041166 -0.03548558 0 0 Z " fill="#000000" transform="translate(351.427734375,-0.315673828125)"/>
<path d="M0 0 C14.77272693 11.53991411 24.19367365 28.26221866 27.5078125 46.640625 C29.37912683 66.54822428 25.01743231 84.80271211 12.8203125 100.828125 C12.25957031 101.56546875 11.69882812 102.3028125 11.12109375 103.0625 C0.10063561 116.46263779 -16.60059775 124.99434167 -33.6796875 127.30078125 C-54.60131018 129.19680331 -72.93612659 123.94118832 -89.1796875 110.828125 C-102.64065122 99.51341401 -111.66818311 82.14670484 -113.40087891 64.58642578 C-114.44164385 44.35129795 -109.65994508 25.71537241 -96.2578125 10.0625 C-70.7514276 -17.3616582 -30.67459425 -20.95217986 0 0 Z M-73.1796875 17.828125 C-74.2315625 18.611875 -75.2834375 19.395625 -76.3671875 20.203125 C-85.57712256 28.79906439 -91.48527204 40.60842431 -92.43359375 53.19921875 C-92.84148545 66.05438621 -90.14814032 76.65733598 -82.1796875 86.828125 C-81.72851562 87.44171875 -81.27734375 88.0553125 -80.8125 88.6875 C-73.27360155 98.31343814 -61.98174824 104.11692387 -50.10546875 106.42578125 C-34.35710012 108.21677219 -22.1792587 102.73259083 -9.5546875 94.015625 C0.24308826 84.99135785 5.6468387 72.3733142 7.10546875 59.265625 C7.57987081 46.39489098 2.86294847 34.2131355 -5.4921875 24.578125 C-14.2663747 15.3565697 -25.04654413 8.38524675 -38.0859375 7.58984375 C-51.71558312 7.25955434 -62.1298019 9.38080726 -73.1796875 17.828125 Z " fill="#000000" transform="translate(343.1796875,178.171875)"/>
<path d="M0 0 C3.74540474 3.03409258 6.68493372 6.11370837 7.78125 10.9375 C7.84782838 15.06535962 7.64915085 16.45861606 4.9375 19.8125 C1.77440996 22.29778503 -0.4149522 23.46033107 -4.515625 23.41796875 C-8.53519258 22.41307686 -11.49022632 19.54850393 -14.71484375 17.046875 C-24.02786741 10.24261592 -33.98917827 6.47714433 -45.5 6.5625 C-46.29535156 6.56813965 -47.09070313 6.5737793 -47.91015625 6.57958984 C-60.89176259 6.8473885 -71.33536449 12.15126682 -80.875 20.90234375 C-90.37534275 31.24215644 -94.06183721 44.49052356 -93.890625 58.1875 C-93.15706297 71.5044723 -87.49446696 82.6384736 -77.875 91.875 C-72.92474329 96.03199524 -67.70506467 98.60404008 -61.6875 100.875 C-60.6975 101.2875 -59.7075 101.7 -58.6875 102.125 C-44.27556331 105.72798417 -31.05040793 102.96774476 -18.5 95.4375 C-15.99642661 93.84252129 -13.85205232 92.14952738 -11.6875 90.125 C-7.68722584 87.12479438 -5.67779621 86.875 -0.6875 86.875 C3.37013553 88.37782797 4.90022494 89.25658741 7.3125 92.875 C7.68359375 94.92578125 7.68359375 94.92578125 7.75 97.1875 C7.80994141 98.29544922 7.80994141 98.29544922 7.87109375 99.42578125 C6.08395077 107.26171584 -2.70267099 111.85637886 -9.01953125 115.86474609 C-25.22588659 125.68059773 -44.32450981 127.97806966 -62.6875 123.875 C-80.92262049 119.06193236 -96.37738411 107.95218417 -106.125 91.68359375 C-115.78823384 74.31393093 -118.77184253 54.95496403 -113.59448242 35.64648438 C-107.97284763 16.82448804 -96.11389308 2.20486366 -79.06982422 -7.39135742 C-53.74382117 -21.00502447 -22.57732529 -17.34200348 0 0 Z " fill="#000000" transform="translate(203.6875,180.125)"/>
<path d="M0 0 C7.77786469 4.03296688 11.62301087 9.4940326 14.375 17.75 C15.68397182 34.05850135 10.07860483 45.03798273 0.375 57.75 C1.38820313 57.98783203 1.38820313 57.98783203 2.421875 58.23046875 C6.55358709 59.31116223 9.68604473 60.17587061 13 62.9375 C14.82219581 66.6647187 15.21418011 69.67750829 14.375 73.75 C12.58136089 76.5600346 11.35619065 78.25940468 8.375 79.75 C2.57974877 80.03576546 -3.21667976 80.06379761 -9.01831055 80.10009766 C-10.95918775 80.11665444 -12.90000406 80.14394088 -14.84057617 80.18212891 C-17.64013265 80.2369334 -20.43826038 80.25877664 -23.23828125 80.2734375 C-24.10302567 80.29610687 -24.96777008 80.31877625 -25.85871887 80.34213257 C-30.30782866 80.32655536 -32.05346614 80.20503083 -35.64916992 77.34228516 C-38.54245714 73.54629804 -39.08558645 71.54009912 -38.625 66.75 C-35.98120208 62.17947199 -32.75399127 58.75959684 -28.8125 55.3125 C-27.74006137 54.34857228 -26.66844276 53.38373142 -25.59765625 52.41796875 C-24.61667969 51.53753906 -23.63570313 50.65710938 -22.625 49.75 C-15.46857853 43.19760676 -7.94410069 35.13201375 -7.4375 25 C-7.25492257 21.89834208 -7.25492257 21.89834208 -8.625 20.75 C-11.58317107 20.49994614 -11.58317107 20.49994614 -14.625 20.75 C-16.85660471 22.98160471 -17.16721193 24.20415922 -18 27.1875 C-18.91424913 30.03538605 -19.4332979 31.54551776 -21.5 33.75 C-25.69596417 35.72457137 -27.70396136 36.03583958 -32.25 34.625 C-35.93462761 32.57798466 -37.14949959 31.65573638 -38.625 27.75 C-39.42343499 21.02033369 -37.7949717 15.70913511 -34.625 9.75 C-32.1875 6.875 -32.1875 6.875 -29.625 4.75 C-28.8 4.028125 -27.975 3.30625 -27.125 2.5625 C-19.75354682 -2.78180356 -8.5020099 -2.97489065 0 0 Z " fill="#000000" transform="translate(409.625,267.25)"/>
<path d="M0 0 C13.96835599 0.31293669 28.16785423 14.84995493 37.51000977 24.27441406 C54.10418863 41.73026721 64.22080979 65.9338037 64.5 90 C64.54350586 91.25586914 64.54350586 91.25586914 64.58789062 92.53710938 C64.63072483 96.69861674 64.54962398 98.85884827 62.29296875 102.46484375 C59.0315826 105.52050239 56.6998033 105.78797319 52.22265625 105.71484375 C48.91636011 105.26427364 47.37505931 103.88241923 45.1875 101.4375 C43.30435589 96.81833855 42.75365001 92.29745233 42.3125 87.375 C40.40149186 69.56126381 33.3743752 52.69968772 21.1875 39.4375 C20.55070312 38.73238281 19.91390625 38.02726562 19.2578125 37.30078125 C12.29054079 29.95576589 3.99229873 24.73893726 -4.78125 19.796875 C-6.8125 18.4375 -6.8125 18.4375 -8.8125 15.4375 C-9.35772803 12.37274457 -9.36092924 9.50225161 -8.8125 6.4375 C-6.375 3.4375 -6.375 3.4375 -3.8125 1.4375 C-2.8125 0.4375 -2.8125 0.4375 0 0 Z " fill="#000000" transform="translate(393.8125,62.5625)"/>
<path d="M0 0 C2.61857819 2.06013589 3.82257639 3.36319311 4.72265625 6.59375 C4.83480469 7.5528125 4.94695312 8.511875 5.0625 9.5 C7.40810207 26.12142157 12.46179254 40.70391686 26.1875 51.25 C35.78509414 57.7825979 44.96707507 60.59712107 56.4140625 61.74926758 C60.54824696 62.24255095 62.62036974 62.71393023 66.02734375 65.28125 C68.13059133 68.1799833 68.68015884 69.46983453 68.625 73 C68.64433594 74.2375 68.64433594 74.2375 68.6640625 75.5 C67.67443338 79.22566257 66.05942275 80.69733923 63 83 C60.12909394 83.49067503 57.97417742 83.67070479 55.125 83.5625 C54.37758545 83.54517822 53.6301709 83.52785645 52.86010742 83.51000977 C32.435102 82.66139711 15.63504095 72.93034656 1.69140625 58.6328125 C-9.97766315 45.12125846 -16.43374461 27.27872987 -16.21484375 9.5234375 C-15.83172911 5.02358193 -14.14287883 2.97961043 -10.8125 0.125 C-7.06342367 -1.37463053 -3.81295137 -1.3872169 0 0 Z " fill="#000000" transform="translate(70,335)"/>
<path d="M0 0 C2.89037303 2.26203107 4.57487033 3.99031704 6 7.375 C6 11.92733267 4.27900305 15.53151502 1.3125 18.9375 C-2.8047346 20.82920239 -6.97451158 20.49268637 -11.3125 19.4375 C-14.15242574 17.018304 -14.95734032 14.53345782 -16 11 C-15.24736977 6.06609072 -13.9384464 3.10301837 -10 0 C-6.1544104 -1.2818632 -3.93271581 -0.94927623 0 0 Z " fill="#000000" transform="translate(51,73)"/>
<path d="M0 0 C3.67080764 2.52368025 4.75864984 4.17035883 6 8.4375 C6 12.53094236 5.22004022 14.59065251 3 18 C-1.01858595 20.6790573 -4.27641721 20.69610694 -9 20 C-11.87029869 18.20606332 -13.49131638 17.01736724 -15 14 C-15.5811138 6.91041162 -15.5811138 6.91041162 -13.125 3.0625 C-9.22556807 -0.72224276 -5.23389564 -0.78644028 0 0 Z " fill="#000000" transform="translate(359,54)"/>
</svg>
