<?xml version="1.0" encoding="UTF-8"?>
<svg version="1.1" xmlns="http://www.w3.org/2000/svg" width="512" height="512">
<path d="M0 0 C30.86592891 17.78037329 52.93956226 48.63162878 62.35058594 82.61816406 C64.19128406 89.72353559 65.62778284 96.91682395 67 104.125 C67.86238281 103.39796875 68.72476563 102.6709375 69.61328125 101.921875 C110.6116239 67.92129879 162.39867018 48.2121064 215 42.125 C216.59714844 41.92777344 216.59714844 41.92777344 218.2265625 41.7265625 C221.15696538 41.42114023 224.05558332 41.24361394 227 41.125 C228.19206055 41.07617676 228.19206055 41.07617676 229.40820312 41.02636719 C232.18878609 40.92684524 234.96815367 40.86501934 237.75 40.8125 C238.63816406 40.78260986 239.52632813 40.75271973 240.44140625 40.72192383 C247.30051363 40.66215087 252.34471123 42.16541036 257.71118164 46.51049805 C265.41370567 54.27643667 265.57575856 67.06143355 266.625 77.375 C266.74617188 78.47457031 266.86734375 79.57414062 266.9921875 80.70703125 C268.54638297 95.28606046 269.20705942 109.7870982 269.1875 124.4375 C269.18709213 125.60129684 269.18709213 125.60129684 269.18667603 126.78860474 C269.16350998 141.29888921 268.51344562 155.68687087 267 170.125 C266.90348145 171.06859375 266.80696289 172.0121875 266.70751953 172.984375 C262.14459584 215.4218131 241.55553909 254.05149164 212.8125 285.0625 C211.9757373 285.96645508 211.9757373 285.96645508 211.12207031 286.88867188 C192.53966892 306.57184895 168.79895916 321.58256439 144 332.125 C143.37270996 332.39505859 142.74541992 332.66511719 142.09912109 332.94335938 C100.40924462 350.5910207 47.64091624 353.70975136 4.765625 338.23828125 C0.99083176 337.08821865 0.22488194 337.04671831 -3.703125 338.4140625 C-4.90437894 339.16312317 -6.08615476 339.94404269 -7.25 340.75 C-8.63470008 341.61212748 -10.02292631 342.46860938 -11.4140625 343.3203125 C-12.15043945 343.77954102 -12.88681641 344.23876953 -13.64550781 344.71191406 C-25.13808935 351.60936967 -37.61365718 357.15236423 -49.9375 362.375 C-50.84258301 362.77009766 -51.74766602 363.16519531 -52.68017578 363.57226562 C-57.85439095 365.70070759 -61.404776 366.68123953 -67 365.125 C-69.96326994 363.01951873 -70.83222327 361.65070041 -71.9375 358.1875 C-72.01350518 354.46324612 -71.2797858 353.03369223 -69 350.125 C-66.34604944 347.93046157 -63.78839539 346.45758425 -60.61328125 345.14453125 C-59.76612549 344.7894751 -58.91896973 344.43441895 -58.04614258 344.06860352 C-57.14404053 343.69533936 -56.24193848 343.3220752 -55.3125 342.9375 C-24.85479126 330.07862546 3.58393752 314.08351972 30 294.125 C30.62455078 293.65352539 31.24910156 293.18205078 31.89257812 292.69628906 C53.43728607 276.32277585 74.50902729 257.82634112 92 237.125 C92.88667391 236.11210059 93.77483301 235.10050034 94.6640625 234.08984375 C110.37733671 216.14327645 123.78697032 196.57558466 136.31787109 176.31005859 C136.88328613 175.40594238 137.44870117 174.50182617 138.03125 173.5703125 C138.53205078 172.76094238 139.03285156 171.95157227 139.54882812 171.11767578 C141 169.125 141 169.125 144 167.125 C148.90487343 166.57122397 150.89979388 166.36860829 155 169.1875 C157.53917026 172.91690632 157.4206022 174.66476792 157 179.125 C155.87584165 181.73932175 154.76336437 183.96100078 153.3125 186.375 C152.91313232 187.05973389 152.51376465 187.74446777 152.10229492 188.44995117 C146.84440186 197.30068806 140.96817797 205.74344215 135 214.125 C134.42024414 214.9396875 133.84048828 215.754375 133.24316406 216.59375 C125.64247174 227.2153919 117.70157406 237.38524254 109 247.125 C108.22140625 248.00285156 107.4428125 248.88070312 106.640625 249.78515625 C104.44162038 252.24539015 102.2238283 254.68719509 100 257.125 C99.12601563 258.09179688 98.25203125 259.05859375 97.3515625 260.0546875 C89.73588236 268.45555849 81.99320924 276.73217431 73.359375 284.10546875 C71.47771113 285.71609825 69.61822013 287.3446614 67.765625 288.98828125 C56.05097698 299.33627306 43.71959239 308.77556072 31.0625 317.9375 C30.47718506 318.36442139 29.89187012 318.79134277 29.28881836 319.23120117 C25.2375 322.125 25.2375 322.125 23 322.125 C23 322.785 23 323.445 23 324.125 C24.216875 324.24875 25.43375 324.3725 26.6875 324.5 C30.56520834 324.92478808 34.40003609 325.4981529 38.25 326.125 C85.22557591 333.41900599 134.92769342 321.61440662 173.4765625 293.6484375 C180.32764348 288.53469774 186.79835677 283.00812984 193 277.125 C193.49467773 276.66287109 193.98935547 276.20074219 194.49902344 275.72460938 C232.44043562 240.09470477 248.11181743 191.74263906 249.875 140.83203125 C249.91891379 139.26308212 249.96061738 137.69406941 250 136.125 C250.03287109 134.99843994 250.03287109 134.99843994 250.06640625 133.84912109 C250.70002296 109.24895217 248.49619557 84.45123454 245 60.125 C181.5173922 61.08012095 117.66890624 83.04385338 71 127.125 C69.71272082 128.23427865 68.42111716 129.33856091 67.125 130.4375 C57.84513668 138.555037 49.57513584 147.40469294 42 157.125 C41.19949219 158.13175781 40.39898437 159.13851562 39.57421875 160.17578125 C11.76805984 195.40343548 -7.77945189 238.14695752 -13.49487305 282.82910156 C-14.30556186 288.45137386 -15.2267857 291.54871633 -20 295.125 C-23.69137694 296.35545898 -25.221644 296.49648809 -28.75 294.8125 C-31 293.125 -31 293.125 -33 291.125 C-34.02792057 282.61321972 -32.30758402 274.38908482 -30.4375 266.125 C-29.94908782 263.93925985 -29.46827066 261.75180478 -28.99609375 259.5625 C-28.78138428 258.61246094 -28.5666748 257.66242188 -28.34545898 256.68359375 C-27.82675607 252.84189304 -28.41418641 250.91231211 -30.71484375 247.8203125 C-31.44832031 246.97210938 -32.18179688 246.12390625 -32.9375 245.25 C-41.83343455 234.61724013 -49.56395229 223.41846532 -56 211.125 C-56.33241699 210.49287598 -56.66483398 209.86075195 -57.00732422 209.20947266 C-79.18535617 166.35034629 -81.4811402 115.92505858 -67.10058594 70.26953125 C-58.89813972 45.87964874 -46.06359825 23.53296495 -28 5.125 C-27.18402344 4.24328125 -26.36804688 3.3615625 -25.52734375 2.453125 C-18.78908623 -3.75398703 -8.09649268 -3.75009399 0 0 Z M-15.47265625 18.01953125 C-36.49695956 41.7075472 -50.60408921 69.84489047 -56 101.125 C-56.22429687 102.42308594 -56.44859375 103.72117187 -56.6796875 105.05859375 C-62.99859173 148.03579856 -50.50623593 190.65714751 -25.1640625 225.4296875 C-23.10311742 228.27402048 -23.10311742 228.27402048 -20 230.125 C-19.78384033 229.54645264 -19.56768066 228.96790527 -19.3449707 228.37182617 C-11.77348399 208.15907373 -11.77348399 208.15907373 -7.91015625 200.18359375 C-6.40796775 196.78593994 -5.87466362 193.68608529 -5.83886719 189.984375 C-5.82940567 189.17307632 -5.81994415 188.36177765 -5.81019592 187.52589417 C-5.80580002 186.65109909 -5.80140411 185.77630402 -5.796875 184.875 C-5.78986069 183.95762558 -5.78284637 183.04025116 -5.77561951 182.09507751 C-5.75801463 179.10500237 -5.75175534 176.11512526 -5.75 173.125 C-5.74932526 172.10536163 -5.74865051 171.08572327 -5.74795532 170.03518677 C-5.77640766 142.99509862 -9.0693033 116.97144123 -14.54443359 90.49194336 C-15.17784961 87.2009636 -15.35847856 84.47079992 -15 81.125 C-12.875 78.1875 -12.875 78.1875 -10 76.125 C-6.06227298 75.56246757 -3.28445421 75.86693773 0 78.125 C11.07652137 102.73949194 10.99169953 136.45810586 12 163.125 C15.57181629 159.69177271 18.59242289 156.17273037 21.5625 152.1875 C25.26281069 147.29888676 29.08386973 142.54008185 33.0625 137.875 C33.56370361 137.28074219 34.06490723 136.68648438 34.58129883 136.07421875 C37.57704314 132.58088944 40.71254066 129.64741496 44.25 126.6875 C47.98859764 123.00308493 48.61719773 120.41105592 48.75 115.1875 C48.57288137 112.46532298 48.33864044 109.82476882 48 107.125 C47.91637207 106.40038574 47.83274414 105.67577148 47.74658203 104.92919922 C44.38619622 77.38122356 32.13956077 53.98954413 13 34.125 C12.41734375 33.47917969 11.8346875 32.83335938 11.234375 32.16796875 C7.51772814 28.16037226 3.27681054 24.96070569 -1.125 21.75 C-2.02279175 21.08750244 -2.02279175 21.08750244 -2.9387207 20.41162109 C-9.03977758 15.79985291 -9.03977758 15.79985291 -15.47265625 18.01953125 Z " fill="#000000" transform="translate(159,74.875)"/>
</svg>
