<svg width="16" height="16" viewBox="0 0 16 16" fill="none" xmlns="http://www.w3.org/2000/svg">
<path d="M8.66663 2.6665H10.6666C11.0202 2.6665 11.3594 2.80698 11.6094 3.05703C11.8595 3.30708 12 3.64622 12 3.99984V13.3332" stroke="#09090B" stroke-width="1.33333" stroke-linecap="round" stroke-linejoin="round"/>
<path d="M1.33337 13.3335H3.33337" stroke="#09090B" stroke-width="1.33333" stroke-linecap="round" stroke-linejoin="round"/>
<path d="M8.66663 13.3335H14.6666" stroke="#09090B" stroke-width="1.33333" stroke-linecap="round" stroke-linejoin="round"/>
<path d="M6.66663 8V8.00667" stroke="#09090B" stroke-width="1.33333" stroke-linecap="round" stroke-linejoin="round"/>
<path d="M8.66671 3.04114V13.8125C8.66668 13.9137 8.64358 14.0137 8.59917 14.1047C8.55476 14.1957 8.4902 14.2754 8.41039 14.3377C8.33058 14.4 8.23762 14.4434 8.13856 14.4644C8.03951 14.4854 7.93696 14.4836 7.83871 14.4591L3.33337 13.3331V3.70781C3.33342 3.41048 3.43284 3.1217 3.61584 2.88736C3.79884 2.65302 4.05492 2.48657 4.34337 2.41447L7.01004 1.74781C7.20654 1.69869 7.41165 1.69498 7.60979 1.73698C7.80794 1.77897 7.99391 1.86555 8.1536 1.99015C8.31329 2.11475 8.44249 2.27409 8.53139 2.45608C8.6203 2.63807 8.66658 2.83859 8.66671 3.04114Z" stroke="#09090B" stroke-width="1.33333" stroke-linecap="round" stroke-linejoin="round"/>
</svg>
