<svg width="14" height="15" viewBox="0 0 14 15" fill="none" xmlns="http://www.w3.org/2000/svg">
<path d="M3.49674 9.86654C4.96341 9.86654 6.16341 8.64654 6.16341 7.16654C6.16341 6.3932 5.78341 5.65987 5.02341 5.03987C4.26341 4.41987 3.69008 3.49987 3.49674 2.5332C3.30341 3.49987 2.73674 4.42654 1.97008 5.03987C1.20341 5.6532 0.830078 6.39987 0.830078 7.16654C0.830078 8.64654 2.03008 9.86654 3.49674 9.86654Z" stroke="#71717A" stroke-width="1.33333" stroke-linecap="round" stroke-linejoin="round"/>
<path d="M7.20347 3.39985C7.66198 2.66727 7.987 1.85921 8.16347 1.01318C8.4968 2.67985 9.4968 4.27985 10.8301 5.34652C12.1635 6.41318 12.8301 7.67985 12.8301 9.01318C12.8339 9.93471 12.5641 10.8366 12.0547 11.6046C11.5453 12.3725 10.8193 12.972 9.96889 13.3268C9.11843 13.6817 8.18175 13.7761 7.27759 13.598C6.37342 13.4199 5.54249 12.9774 4.89014 12.3265" stroke="#71717A" stroke-width="1.33333" stroke-linecap="round" stroke-linejoin="round"/>
</svg>
