<svg width="8" height="16" viewBox="0 0 8 16" fill="none" xmlns="http://www.w3.org/2000/svg">
<path d="M5.33338 2.66683V9.6935C5.84175 9.98701 6.23908 10.4401 6.46372 10.9824C6.68837 11.5247 6.72778 12.1261 6.57584 12.6931C6.42391 13.2601 6.08912 13.7611 5.62341 14.1185C5.15769 14.4759 4.58707 14.6696 4.00004 14.6696C3.41302 14.6696 2.8424 14.4759 2.37668 14.1185C1.91096 13.7611 1.57617 13.2601 1.42424 12.6931C1.27231 12.1261 1.31172 11.5247 1.53636 10.9824C1.76101 10.4401 2.15833 9.98701 2.66671 9.6935V2.66683C2.66671 2.31321 2.80718 1.97407 3.05723 1.72402C3.30728 1.47397 3.64642 1.3335 4.00004 1.3335C4.35366 1.3335 4.6928 1.47397 4.94285 1.72402C5.1929 1.97407 5.33338 2.31321 5.33338 2.66683Z" stroke="#71717A" stroke-width="1.33333" stroke-linecap="round" stroke-linejoin="round"/>
</svg>
